<svg xmlns="http://www.w3.org/2000/svg" xmlns:xlink="http://www.w3.org/1999/xlink" width="480" height="298" xml:space="preserve"><defs><clipPath id="clip0"><rect x="192" y="248" width="480" height="298"></rect></clipPath></defs><g clip-path="url(#clip0)" transform="translate(-192 -248)"><path d="M131.065 121.013 91.8503 148.401C92.8677 148.877 93.8729 149.374 94.8618 149.878 95.8507 150.379 96.8274 150.908 97.7959 151.433 98.7482 151.962 99.6964 152.507 100.62 153.061 101.548 153.622 102.464 154.18 103.355 154.758L141.886 126.812C140.933 126.372 139.993 125.913 139.061 125.457 138.129 124.993 137.21 124.525 136.298 124.045 135.395 123.548 134.512 123.06 133.637 122.559 132.766 122.051 131.907 121.542 131.065 121.013" fill="#CC2525" transform="matrix(1 0 0 1.04943 229.574 184.278)"></path><path d="M200.463 201.676 158.522 246.58C159.678 247.117 160.817 247.662 161.945 248.236 163.072 248.802 164.183 249.383 165.29 249.986 166.389 250.6 167.471 251.219 168.537 251.854 169.608 252.48 170.662 253.136 171.695 253.811L212.839 207.772C211.768 207.324 210.702 206.852 209.644 206.372 208.59 205.9 207.548 205.408 206.515 204.903 205.477 204.386 204.455 203.861 203.446 203.324 202.433 202.787 201.44 202.242 200.463 201.676M265.397 132.147 240.646 158.652C241.578 159.112 242.494 159.584 243.409 160.06 244.329 160.553 245.237 161.037 246.12 161.542 247.019 162.046 247.894 162.559 248.765 163.08 249.628 163.605 250.482 164.142 251.329 164.692L275.669 137.45C274.786 137.047 273.895 136.632 273.02 136.209 272.153 135.785 271.278 135.358 270.415 134.919 269.56 134.471 268.714 134.019 267.876 133.559 267.037 133.099 266.207 132.627 265.397 132.147" fill="#CC2525" transform="matrix(1 0 0 1.04943 229.574 184.278)"></path><path d="M337.331 205.188 313.414 247.096C314.46 247.573 315.518 248.057 316.56 248.565 317.602 249.066 318.644 249.587 319.677 250.12 320.703 250.665 321.728 251.215 322.733 251.776 323.743 252.346 324.748 252.936 325.745 253.53L348.653 210.999C347.692 210.568 346.72 210.124 345.759 209.664 344.799 209.209 343.842 208.733 342.906 208.248 341.954 207.768 341.01 207.276 340.086 206.759 339.162 206.242 338.243 205.729 337.331 205.188" fill="#CC2525" transform="matrix(1 0 0 1.04943 229.574 184.278)"></path><path d="M98.5651 210.32C97.5477 210.482 96.4937 210.613 95.4234 210.735 94.3449 210.853 93.2584 210.942 92.1311 211.016 91.0201 211.089 89.8684 211.138 88.7086 211.162 87.5406 211.191 86.3482 211.191 85.1436 211.174L102.045 237.867C103.107 237.671 104.189 237.513 105.288 237.354 106.387 237.22 107.518 237.097 108.654 237.004 109.789 236.906 110.941 236.833 112.121 236.784 113.297 236.743 114.481 236.719 115.702 236.723L98.5651 210.32" fill="#CC2525" transform="matrix(1 0 0 1.04943 229.574 184.278)"></path><path d="M255.948 214.914C255.215 215.02 254.462 215.114 253.689 215.183 252.916 215.256 252.13 215.321 251.321 215.37 250.511 215.403 249.685 215.435 248.838 215.443 247.992 215.46 247.133 215.451 246.25 215.435 246.136 215.423 246.018 215.431 245.896 215.415 245.798 215.415 245.664 215.407 245.55 215.407 245.44 215.403 245.314 215.398 245.2 215.398 245.086 215.394 244.976 215.382 244.854 215.374L265.381 239.889C266.183 239.702 267.009 239.527 267.867 239.376 268.71 239.226 269.585 239.1 270.48 238.994 271.38 238.888 272.287 238.807 273.231 238.742 274.159 238.672 275.119 238.64 276.084 238.615L255.948 214.914M188.946 136.034C188.173 136.123 187.384 136.205 186.574 136.262 185.756 136.327 184.921 136.359 184.063 136.392 183.212 136.412 182.325 136.42 181.43 136.412 180.526 136.4 179.615 136.371 178.675 136.327L189.304 149.032C190.057 148.881 190.83 148.759 191.624 148.649 192.418 148.539 193.223 148.454 194.049 148.377 194.876 148.303 195.722 148.255 196.597 148.206 197.456 148.161 198.339 148.149 199.242 148.149L188.946 136.034" fill="#CC2525" transform="matrix(1 0 0 1.04943 229.574 184.278)"></path><path d="M317.101 145.418C316.499 145.52 315.872 145.609 315.221 145.679 314.574 145.76 313.898 145.821 313.219 145.866 312.531 145.902 311.811 145.939 311.082 145.947 310.35 145.959 309.593 145.951 308.816 145.931L320.487 157.448C321.102 157.334 321.736 157.232 322.388 157.134 323.047 157.053 323.722 156.988 324.41 156.931 325.098 156.886 325.818 156.854 326.547 156.837 327.267 156.817 328.016 156.817 328.793 156.833L317.101 145.418" fill="#CC2525" transform="matrix(1 0 0 1.04943 229.574 184.278)"></path><path d="M243.076 111.759 201.688 107.917C201.912 108.186 202.132 108.45 202.339 108.723 202.555 108.987 202.762 109.26 202.966 109.524 203.165 109.797 203.361 110.07 203.56 110.334 203.747 110.611 203.943 110.892 204.114 111.16 204.301 111.425 204.48 111.698 204.639 111.974 204.805 112.243 204.968 112.507 205.127 112.78 205.277 113.045 205.428 113.313 205.562 113.578 205.705 113.838 205.835 114.103 205.965 114.367L247.597 118.083C247.373 117.822 247.137 117.55 246.913 117.281 246.689 117.021 246.466 116.752 246.262 116.483 246.038 116.215 245.839 115.954 245.639 115.69 245.432 115.433 245.245 115.157 245.045 114.884 244.858 114.62 244.671 114.351 244.5 114.095 244.313 113.818 244.142 113.557 243.975 113.297 243.82 113.041 243.662 112.78 243.511 112.524 243.361 112.267 243.214 112.019 243.076 111.759" fill="#CC2525" transform="matrix(1 0 0 1.04943 229.574 184.278)"></path><path d="M172.538 173.661 121.082 171.036C121.338 171.415 121.599 171.789 121.843 172.167 122.087 172.546 122.331 172.924 122.551 173.303 122.783 173.693 123.003 174.068 123.219 174.454 123.434 174.841 123.638 175.224 123.837 175.61 123.996 175.936 124.15 176.249 124.297 176.571 124.456 176.888 124.598 177.197 124.724 177.515 124.863 177.836 124.989 178.154 125.107 178.463 125.229 178.78 125.343 179.086 125.457 179.395L177.026 181.768C176.811 181.466 176.591 181.149 176.371 180.844 176.172 180.538 175.964 180.229 175.765 179.912 175.565 179.603 175.37 179.297 175.183 178.98 174.996 178.675 174.809 178.365 174.638 178.048 174.414 177.682 174.214 177.299 174.019 176.929 173.82 176.554 173.641 176.188 173.462 175.826 173.291 175.452 173.132 175.089 172.973 174.727 172.819 174.385 172.676 174.011 172.538 173.661M310.578 180.677 267.591 178.5C267.892 178.829 268.181 179.183 268.458 179.529 268.738 179.875 269.035 180.225 269.3 180.575 269.56 180.921 269.837 181.279 270.085 181.633 270.342 181.979 270.594 182.345 270.85 182.704 271.05 182.992 271.245 183.294 271.441 183.583 271.624 183.88 271.819 184.169 271.994 184.453 272.173 184.746 272.344 185.039 272.515 185.32 272.674 185.605 272.841 185.902 272.995 186.179L315.998 188.165C315.746 187.872 315.51 187.607 315.27 187.314 315.026 187.029 314.79 186.745 314.562 186.452 314.33 186.171 314.102 185.886 313.886 185.601 313.662 185.316 313.451 185.035 313.235 184.746 312.979 184.405 312.73 184.051 312.486 183.709 312.246 183.359 312.022 183.029 311.803 182.683 311.579 182.345 311.359 182.008 311.16 181.678 310.952 181.344 310.765 181.011 310.578 180.677" fill="#CC2525" transform="matrix(1 0 0 1.04943 229.574 184.278)"></path><path d="M248.81 274.261 194.115 274.887C194.408 275.311 194.697 275.742 194.969 276.169 195.25 276.601 195.523 277.04 195.787 277.468 196.06 277.911 196.308 278.347 196.552 278.79 196.809 279.23 197.057 279.681 197.293 280.121 197.529 280.565 197.757 281.016 197.973 281.46 198.196 281.903 198.408 282.355 198.603 282.803 198.811 283.238 198.998 283.69 199.185 284.13 199.364 284.565 199.543 285.013 199.706 285.448L254.849 284.451C254.527 284.036 254.226 283.605 253.929 283.181 253.628 282.754 253.335 282.331 253.046 281.899 252.761 281.472 252.476 281.045 252.212 280.613 251.951 280.186 251.683 279.751 251.435 279.323 251.178 278.896 250.922 278.465 250.686 278.037 250.446 277.614 250.234 277.183 250.01 276.768 249.795 276.34 249.583 275.921 249.379 275.498 249.18 275.083 248.989 274.664 248.81 274.261" fill="#CC2525" transform="matrix(1 0 0 1.04943 229.574 184.278)"></path><path d="M154.066 318.11C147.237 318.367 140.185 317.52 133.303 315.775 126.401 314.008 119.707 311.347 113.602 308.002 107.518 304.656 102.061 300.628 97.5884 296.155 93.1648 291.703 89.7382 286.844 87.6668 281.753 85.632 276.719 85.107 271.966 85.8924 267.688 86.6738 263.452 88.7249 259.68 91.8381 256.554 94.9228 253.461 99.0372 250.995 104.014 249.31 108.922 247.654 114.685 246.75 121.119 246.783 127.496 246.828 133.983 247.772 140.238 249.465 146.488 251.142 152.548 253.563 158.115 256.546 163.69 259.545 168.802 263.118 173.124 267.115 177.462 271.135 181.023 275.596 183.46 280.329 185.923 285.131 187.013 289.77 186.875 294.076 186.732 298.43 185.312 302.443 182.744 305.885 180.144 309.381 176.371 312.291 171.581 314.407 166.73 316.54 160.838 317.85 154.066 318.11M116.479 236.723C116.422 236.723 116.349 236.723 116.288 236.719 116.223 236.723 116.15 236.719 116.089 236.723 116.024 236.723 115.958 236.719 115.893 236.719 115.828 236.719 115.763 236.719 115.702 236.723 114.481 236.719 113.297 236.743 112.121 236.784 110.945 236.833 109.789 236.902 108.654 237.004 107.522 237.093 106.387 237.22 105.288 237.354 104.189 237.513 103.107 237.671 102.045 237.867 95.9036 238.974 90.4422 240.862 85.8395 243.393 81.1758 245.977 77.3748 249.225 74.5912 253.022 71.7791 256.867 70.013 261.283 69.4758 266.13 68.9467 271.03 69.6752 276.369 71.8483 281.981 74.4691 288.72 78.9131 295.195 84.7326 301.108 90.6009 307.082 97.8244 312.437 105.911 316.902 114.009 321.366 122.921 324.915 132.107 327.226 141.255 329.53 150.607 330.604 159.649 330.193 167.943 329.819 175.203 328.231 181.259 325.692 187.245 323.169 192.043 319.73 195.523 315.604 198.937 311.542 201.074 306.83 201.798 301.686 202.506 296.627 201.847 291.145 199.71 285.456 199.543 285.021 199.368 284.573 199.189 284.138 199.002 283.698 198.815 283.246 198.607 282.811 198.416 282.363 198.2 281.912 197.977 281.468 197.761 281.024 197.533 280.573 197.297 280.129 197.061 279.69 196.817 279.238 196.556 278.798 196.312 278.355 196.06 277.919 195.791 277.476 195.527 277.048 195.254 276.609 194.973 276.178 194.701 275.75 194.412 275.319 194.119 274.896 192.751 272.889 191.229 270.932 189.577 269.044 187.929 267.151 186.163 265.324 184.266 263.562 182.382 261.792 180.372 260.099 178.268 258.479 176.172 256.855 173.97 255.292 171.695 253.815 170.662 253.14 169.608 252.484 168.537 251.858 167.467 251.223 166.385 250.604 165.29 249.99 164.187 249.392 163.072 248.806 161.945 248.24 160.821 247.662 159.678 247.121 158.522 246.584 155.275 245.086 151.913 243.723 148.495 242.543 145.064 241.35 141.572 240.329 138.044 239.482 134.499 238.628 130.918 237.972 127.317 237.5 123.711 237.032 120.089 236.772 116.479 236.723" fill="#CC2525" transform="matrix(1 0 0 1.04943 229.574 184.278)"></path><path d="M325.444 311.685C319.954 311.892 314.086 311.123 308.16 309.544 302.223 307.961 296.261 305.576 290.633 302.589 285.017 299.594 279.759 296.013 275.217 292.004 270.7 288.04 266.895 283.682 264.132 279.136 261.421 274.639 259.977 270.383 259.704 266.545 259.431 262.74 260.286 259.346 262.146 256.534 263.973 253.75 266.797 251.524 270.476 250.006 274.114 248.492 278.595 247.682 283.849 247.711 289.042 247.739 294.523 248.602 299.989 250.132 305.442 251.638 310.895 253.823 316.059 256.534 321.236 259.236 326.148 262.463 330.494 266.081 334.869 269.703 338.686 273.724 341.641 277.993 344.632 282.306 346.475 286.474 347.224 290.327 347.985 294.222 347.639 297.807 346.247 300.884 344.831 303.997 342.369 306.581 338.894 308.449 335.394 310.342 330.877 311.477 325.444 311.685M277.915 238.615C277.765 238.615 277.614 238.615 277.464 238.615 277.305 238.615 277.154 238.615 277.004 238.619 276.853 238.607 276.707 238.615 276.548 238.615 276.397 238.615 276.255 238.619 276.088 238.619 275.124 238.644 274.159 238.681 273.235 238.746 272.295 238.811 271.384 238.888 270.484 238.998 269.589 239.1 268.714 239.23 267.872 239.38 267.013 239.531 266.187 239.706 265.385 239.893 261.218 240.89 257.645 242.449 254.739 244.484 251.805 246.527 249.554 249.062 248.041 252.008 246.51 254.983 245.766 258.381 245.851 262.097 245.945 265.857 246.909 269.939 248.818 274.265 248.997 274.672 249.192 275.087 249.392 275.506 249.595 275.929 249.811 276.344 250.022 276.776 250.246 277.195 250.458 277.622 250.698 278.046 250.934 278.473 251.186 278.904 251.447 279.331 251.699 279.759 251.964 280.194 252.224 280.622 252.489 281.053 252.773 281.48 253.058 281.908 253.343 282.339 253.64 282.762 253.941 283.189 254.234 283.613 254.536 284.044 254.861 284.459 258.89 289.912 264.03 295.077 269.935 299.769 275.86 304.473 282.526 308.669 289.562 312.144 296.603 315.612 303.973 318.334 311.27 320.125 318.55 321.907 325.729 322.729 332.435 322.424 339.586 322.103 345.499 320.532 350.053 317.964 354.545 315.445 357.716 311.978 359.461 307.843 361.179 303.773 361.537 299.04 360.446 293.921 359.368 288.879 356.893 283.425 352.934 277.83 351.277 275.478 349.426 273.19 347.411 270.977 345.409 268.783 343.236 266.659 340.924 264.616 338.629 262.577 336.196 260.632 333.648 258.776 331.109 256.933 328.472 255.179 325.753 253.534 324.756 252.94 323.751 252.35 322.742 251.78 321.736 251.215 320.711 250.669 319.685 250.124 318.652 249.591 317.61 249.07 316.568 248.57 315.522 248.061 314.464 247.577 313.422 247.1 310.5 245.814 307.554 244.638 304.575 243.609 301.608 242.587 298.621 241.7 295.638 240.976 292.631 240.239 289.644 239.682 286.697 239.271 283.727 238.88 280.792 238.648 277.915 238.615" fill="#CC2525" transform="matrix(1 0 0 1.04943 229.574 184.278)"></path><path d="M80.2805 201.802C73.9523 201.603 67.5264 200.565 61.3326 198.86 55.1264 197.155 49.1889 194.782 43.8497 191.909 38.5185 189.056 33.8182 185.735 30.0742 182.113 26.3424 178.524 23.5791 174.662 22.0734 170.706 20.588 166.8 20.4822 163.178 21.5443 159.971 22.5983 156.809 24.7959 154.05 27.9295 151.84 31.0224 149.654 35.039 147.99 39.7842 146.981 44.4804 145.98 49.897 145.617 55.8752 145.996 61.8005 146.374 67.7421 147.453 73.4232 149.081 79.0922 150.709 84.5291 152.89 89.4492 155.482 94.3856 158.07 98.8215 161.078 102.484 164.362 106.167 167.662 109.077 171.256 110.9 174.996 112.756 178.768 113.346 182.345 112.813 185.593 112.284 188.877 110.591 191.811 107.893 194.273 105.158 196.752 101.406 198.725 96.7785 200.04 92.1026 201.367 86.5517 202.001 80.2805 201.802M52.3998 138.048C44.6473 137.519 37.5784 137.963 31.4252 139.208 25.1988 140.486 19.8961 142.594 15.7696 145.398 11.5861 148.246 8.61122 151.803 7.12175 155.918 5.61601 160.105 5.6445 164.863 7.5165 170.002 9.40072 175.224 12.9901 180.343 17.8736 185.101 22.7896 189.911 28.9998 194.334 36.0605 198.131 43.1334 201.94 51.0162 205.09 59.253 207.341 67.4735 209.595 75.9952 210.938 84.3541 211.154 84.4192 211.162 84.4844 211.154 84.5454 211.162 84.6186 211.162 84.6756 211.166 84.7448 211.162 84.8099 211.162 84.8669 211.166 84.9401 211.166 85.0053 211.166 85.0704 211.174 85.1314 211.174 86.336 211.191 87.5284 211.191 88.6964 211.162 89.8603 211.138 91.0079 211.085 92.1189 211.016 93.2461 210.938 94.3327 210.853 95.4112 210.735 96.4815 210.617 97.5314 210.482 98.5529 210.32 103.978 209.473 108.727 208.037 112.703 206.124 116.642 204.227 119.82 201.851 122.152 199.108 124.456 196.406 125.933 193.333 126.507 189.992 127.068 186.7 126.739 183.135 125.453 179.399 125.339 179.086 125.225 178.78 125.103 178.467 124.989 178.154 124.859 177.836 124.72 177.519 124.59 177.201 124.448 176.892 124.293 176.575 124.146 176.253 123.992 175.94 123.833 175.614 123.634 175.228 123.43 174.845 123.214 174.459 122.999 174.072 122.779 173.698 122.547 173.307 122.323 172.928 122.083 172.55 121.839 172.171 121.595 171.793 121.334 171.419 121.078 171.04 120.024 169.547 118.856 168.082 117.578 166.641 116.288 165.212 114.896 163.808 113.403 162.445 111.917 161.086 110.318 159.755 108.645 158.469 106.961 157.195 105.194 155.95 103.351 154.758 102.46 154.18 101.544 153.622 100.616 153.061 99.6924 152.507 98.7441 151.962 97.7919 151.433 96.8233 150.908 95.8466 150.379 94.8577 149.878 93.8688 149.37 92.8636 148.877 91.8462 148.401 88.8754 147.005 85.7825 145.719 82.6123 144.551 79.4422 143.396 76.1784 142.366 72.8576 141.483 69.5287 140.592 66.1509 139.855 62.7366 139.281 59.3181 138.691 55.859 138.28 52.3998 138.048" fill="#CC2525" transform="matrix(1 0 0 1.04943 229.574 184.278)"></path><path d="M240.878 206.905C235.685 206.751 230.228 205.815 224.811 204.276 219.387 202.73 214.027 200.585 209.054 197.985 204.097 195.392 199.527 192.369 195.673 189.076 191.836 185.792 188.714 182.26 186.606 178.638 184.502 175.053 183.595 171.724 183.729 168.769 183.871 165.847 185.035 163.3 187.086 161.241 189.109 159.202 192.015 157.647 195.653 156.679 199.267 155.726 203.617 155.352 208.578 155.669 213.514 155.975 218.63 156.943 223.652 158.416 228.653 159.902 233.602 161.888 238.208 164.252 242.827 166.625 247.129 169.392 250.853 172.408 254.593 175.447 257.767 178.744 260.091 182.187 262.418 185.654 263.684 188.954 263.948 191.937 264.217 194.957 263.476 197.671 261.804 199.922 260.103 202.201 257.466 204.024 253.97 205.237 250.438 206.466 246.046 207.072 240.878 206.905M203.943 148.316C203.548 148.283 203.145 148.263 202.75 148.238 202.347 148.226 201.953 148.194 201.562 148.189 201.175 148.169 200.781 148.169 200.39 148.161 200.003 148.149 199.625 148.149 199.242 148.149 198.339 148.149 197.456 148.161 196.597 148.206 195.722 148.251 194.876 148.303 194.049 148.377 193.223 148.454 192.422 148.539 191.624 148.649 190.835 148.759 190.057 148.881 189.304 149.032 185.727 149.736 182.598 150.81 180.001 152.239 177.372 153.687 175.281 155.486 173.787 157.582 172.273 159.702 171.362 162.128 171.126 164.822 170.881 167.528 171.341 170.483 172.538 173.661 172.672 174.011 172.819 174.385 172.973 174.735 173.132 175.097 173.291 175.46 173.462 175.834 173.641 176.2 173.82 176.567 174.019 176.937 174.214 177.307 174.414 177.69 174.638 178.056 174.809 178.374 174.996 178.683 175.183 178.988 175.37 179.305 175.565 179.611 175.765 179.92 175.964 180.237 176.172 180.547 176.371 180.852 176.587 181.157 176.811 181.47 177.026 181.776 178.345 183.599 179.847 185.398 181.519 187.16 183.2 188.934 185.035 190.651 187.017 192.332 189.003 194.013 191.136 195.637 193.378 197.203 195.633 198.766 197.997 200.264 200.459 201.68 201.436 202.246 202.429 202.791 203.442 203.328 204.455 203.865 205.473 204.39 206.511 204.907 207.544 205.412 208.586 205.904 209.64 206.376 210.698 206.856 211.764 207.324 212.835 207.776 215.447 208.871 218.109 209.852 220.795 210.735 223.473 211.618 226.175 212.383 228.881 213.038 231.587 213.689 234.273 214.214 236.951 214.601 239.617 215.004 242.262 215.26 244.846 215.378 244.968 215.386 245.078 215.398 245.192 215.403 245.306 215.403 245.432 215.407 245.542 215.411 245.656 215.411 245.79 215.419 245.888 215.419 246.01 215.435 246.128 215.427 246.242 215.439 247.125 215.455 247.984 215.464 248.83 215.447 249.676 215.439 250.503 215.407 251.312 215.374 252.122 215.325 252.908 215.26 253.681 215.187 254.45 215.114 255.207 215.024 255.94 214.918 260.502 214.259 264.355 213.001 267.448 211.272 270.496 209.555 272.788 207.365 274.257 204.809 275.697 202.282 276.353 199.385 276.149 196.243 275.95 193.113 274.908 189.74 272.987 186.191 272.832 185.91 272.666 185.617 272.507 185.332 272.336 185.048 272.165 184.759 271.986 184.466 271.811 184.181 271.616 183.888 271.432 183.595 271.237 183.306 271.042 183.005 270.842 182.716 270.59 182.358 270.338 181.995 270.077 181.645 269.825 181.291 269.552 180.937 269.292 180.587 269.027 180.241 268.73 179.887 268.449 179.541 268.173 179.196 267.884 178.841 267.583 178.512 266.504 177.246 265.344 176.013 264.107 174.804 262.874 173.596 261.576 172.412 260.204 171.248 258.841 170.1 257.413 168.969 255.927 167.874 254.446 166.791 252.904 165.721 251.317 164.696 250.47 164.146 249.615 163.609 248.753 163.084 247.878 162.563 247.003 162.05 246.107 161.546 245.224 161.037 244.317 160.553 243.397 160.064 242.481 159.588 241.566 159.116 240.634 158.656 237.749 157.24 234.782 155.938 231.758 154.766 228.739 153.598 225.658 152.56 222.557 151.681 219.46 150.794 216.33 150.061 213.225 149.488 210.124 148.922 207.011 148.523 203.943 148.316" fill="#CC2525" transform="matrix(1 0 0 1.04943 229.574 184.278)"></path><path d="M374.047 211.138C369.709 211.011 364.984 210.165 360.19 208.765 355.38 207.353 350.508 205.383 345.857 203.011 341.213 200.638 336.822 197.863 332.936 194.835 329.09 191.823 325.782 188.576 323.271 185.231 320.776 181.918 319.331 178.837 318.815 176.099 318.318 173.384 318.749 171.012 320.015 169.083 321.268 167.182 323.348 165.713 326.164 164.801 328.964 163.886 332.505 163.515 336.708 163.78 340.876 164.04 345.34 164.911 349.825 166.267 354.317 167.622 358.843 169.449 363.177 171.634 367.515 173.824 371.678 176.371 375.394 179.163 379.13 181.971 382.438 185.027 385.071 188.214 387.716 191.425 389.434 194.477 390.248 197.24 391.074 200.028 390.997 202.543 390.048 204.63 389.088 206.751 387.257 208.435 384.587 209.567 381.897 210.702 378.369 211.272 374.047 211.138M331.32 156.951C331.096 156.927 330.881 156.915 330.673 156.906 330.458 156.894 330.246 156.882 330.03 156.874 329.827 156.874 329.611 156.854 329.408 156.845 329.196 156.845 328.997 156.833 328.797 156.833 328.024 156.817 327.271 156.817 326.551 156.837 325.818 156.854 325.102 156.886 324.414 156.931 323.726 156.988 323.051 157.057 322.392 157.134 321.741 157.232 321.11 157.33 320.491 157.448 317.435 158.03 314.863 159.01 312.836 160.333 310.797 161.68 309.292 163.365 308.384 165.351 307.464 167.349 307.159 169.665 307.501 172.224 307.847 174.813 308.856 177.649 310.582 180.677 310.769 181.007 310.956 181.34 311.164 181.678 311.363 182.008 311.587 182.345 311.807 182.683 312.026 183.029 312.25 183.359 312.49 183.709 312.735 184.051 312.979 184.405 313.239 184.746 313.455 185.035 313.666 185.316 313.89 185.601 314.106 185.886 314.334 186.171 314.566 186.452 314.794 186.745 315.03 187.029 315.274 187.314 315.514 187.607 315.746 187.872 316.002 188.165 317.358 189.707 318.835 191.237 320.426 192.731 322.021 194.229 323.735 195.706 325.529 197.134 327.336 198.571 329.229 199.967 331.206 201.314 333.176 202.661 335.231 203.943 337.339 205.184 338.255 205.721 339.171 206.234 340.094 206.755 341.022 207.272 341.962 207.764 342.915 208.244 343.85 208.724 344.807 209.201 345.767 209.66 346.728 210.12 347.7 210.564 348.661 210.995 351.334 212.184 354.041 213.254 356.751 214.206 359.461 215.162 362.16 215.98 364.837 216.664 367.511 217.352 370.152 217.893 372.724 218.276 375.3 218.666 377.803 218.89 380.224 218.959 385.901 219.106 390.516 218.32 394.02 216.778 397.471 215.248 399.819 212.997 401.004 210.185 402.172 207.418 402.216 204.109 401.069 200.443 399.941 196.813 397.654 192.82 394.154 188.645 390.687 184.506 386.353 180.534 381.49 176.908 376.655 173.295 371.251 169.998 365.635 167.166 360.023 164.346 354.159 161.973 348.36 160.215 342.524 158.465 336.749 157.309 331.32 156.951" fill="#CC2525" transform="matrix(1 0 0 1.04943 229.574 184.278)"></path><path d="M172.611 129.128C167.63 128.733 162.482 127.724 157.436 126.222 152.377 124.716 147.457 122.734 142.936 120.419 138.431 118.095 134.357 115.446 130.983 112.609 127.626 109.805 124.981 106.814 123.3 103.799 121.627 100.811 121.082 98.0767 121.501 95.7164 121.924 93.356 123.288 91.3538 125.461 89.7911 127.606 88.2406 130.556 87.1174 134.166 86.511 137.739 85.9046 141.971 85.807 146.733 86.2953 151.47 86.7837 156.304 87.8173 161 89.2458 165.693 90.6823 170.271 92.538 174.479 94.6746 178.707 96.8111 182.577 99.2447 185.866 101.87 189.166 104.507 191.88 107.323 193.756 110.212 195.653 113.126 196.512 115.836 196.446 118.246 196.373 120.695 195.364 122.828 193.504 124.562 191.624 126.315 188.877 127.638 185.381 128.444 181.861 129.25 177.56 129.51 172.611 129.128M143.005 80.1218C136.799 79.4625 131.276 79.5642 126.588 80.313 121.847 81.0781 117.957 82.5065 115.088 84.4925 112.182 86.511 110.318 89.0992 109.708 92.1636 109.085 95.2606 109.728 98.8377 111.86 102.765 112.727 104.356 113.806 105.955 115.075 107.534 116.345 109.126 117.806 110.688 119.438 112.231 121.074 113.773 122.869 115.283 124.818 116.76 126.767 118.221 128.851 119.658 131.065 121.013 131.907 121.542 132.766 122.051 133.641 122.555 134.516 123.056 135.399 123.544 136.302 124.041 137.214 124.521 138.129 124.989 139.065 125.453 139.997 125.913 140.937 126.368 141.89 126.808 144.637 128.069 147.473 129.233 150.363 130.291 153.26 131.341 156.202 132.273 159.181 133.083 162.144 133.885 165.127 134.56 168.098 135.098 171.056 135.614 174.003 135.989 176.892 136.205 177.051 136.221 177.193 136.225 177.336 136.233 177.494 136.245 177.637 136.262 177.787 136.262 177.938 136.278 178.08 136.282 178.223 136.298 178.374 136.302 178.524 136.306 178.667 136.319 179.607 136.363 180.518 136.392 181.422 136.404 182.317 136.412 183.204 136.404 184.055 136.384 184.913 136.355 185.748 136.319 186.566 136.253 187.375 136.2 188.165 136.115 188.938 136.025 192.89 135.549 196.292 134.646 199.059 133.372 201.814 132.111 203.951 130.499 205.424 128.59 206.885 126.69 207.683 124.517 207.788 122.116 207.882 119.731 207.296 117.135 205.953 114.363 205.827 114.099 205.697 113.838 205.55 113.574 205.416 113.309 205.265 113.045 205.115 112.776 204.956 112.503 204.793 112.239 204.626 111.97 204.468 111.694 204.289 111.421 204.101 111.156 203.93 110.888 203.735 110.607 203.548 110.33 203.348 110.066 203.153 109.793 202.954 109.52 202.75 109.256 202.543 108.983 202.327 108.719 202.119 108.446 201.9 108.181 201.676 107.913 198.819 104.494 195.128 101.206 190.843 98.1418 186.59 95.1141 181.747 92.2979 176.55 89.8318 171.378 87.3737 165.831 85.2494 160.178 83.585 154.518 81.9287 148.706 80.7241 143.005 80.1218" fill="#CC2525" transform="matrix(1 0 0 1.04943 229.574 184.278)"></path><path d="M301.181 139.188C296.969 138.858 292.468 137.946 287.951 136.563 283.442 135.199 278.925 133.376 274.672 131.227 270.431 129.083 266.476 126.629 263.061 123.996 259.659 121.379 256.806 118.591 254.747 115.775 252.708 112.971 251.646 110.403 251.479 108.161 251.292 105.939 251.988 104.031 253.445 102.529 254.894 101.035 257.083 99.9528 259.944 99.3424 262.785 98.7319 266.301 98.5976 270.374 99.0209 274.428 99.4319 278.689 100.368 282.929 101.682 287.157 102.997 291.373 104.706 295.357 106.696 299.346 108.69 303.11 110.973 306.419 113.419 309.739 115.877 312.608 118.518 314.794 121.229 316.995 123.959 318.285 126.511 318.741 128.79 319.205 131.085 318.806 133.108 317.622 134.735 316.434 136.4 314.423 137.67 311.676 138.443 308.905 139.228 305.385 139.517 301.181 139.188M265.914 93.2055C260.982 92.6805 256.692 92.7741 253.107 93.3804 249.506 94.0153 246.62 95.1873 244.561 96.8192 242.481 98.4674 241.248 100.58 240.943 103.082 240.65 105.614 241.326 108.54 243.076 111.763 243.21 112.019 243.352 112.271 243.503 112.528 243.654 112.784 243.812 113.045 243.967 113.301 244.134 113.557 244.305 113.822 244.492 114.099 244.663 114.351 244.85 114.624 245.037 114.888 245.241 115.161 245.428 115.433 245.631 115.694 245.835 115.958 246.034 116.219 246.254 116.487 246.457 116.752 246.681 117.021 246.905 117.285 247.129 117.554 247.365 117.822 247.589 118.087 248.688 119.34 249.904 120.573 251.211 121.79 252.533 123.019 253.945 124.22 255.447 125.408 256.945 126.592 258.54 127.74 260.196 128.871 261.857 130.003 263.603 131.093 265.389 132.151 266.199 132.631 267.029 133.099 267.867 133.563 268.706 134.027 269.552 134.479 270.407 134.923 271.27 135.362 272.145 135.789 273.011 136.213 273.89 136.636 274.782 137.055 275.661 137.454 278.176 138.593 280.74 139.635 283.328 140.575 285.92 141.515 288.521 142.358 291.105 143.066 293.705 143.778 296.285 144.372 298.813 144.84 301.344 145.3 303.834 145.622 306.252 145.805 306.467 145.813 306.679 145.833 306.903 145.849 307.119 145.854 307.334 145.878 307.55 145.882 307.757 145.894 307.973 145.898 308.181 145.915 308.388 145.927 308.604 145.927 308.803 145.935 309.577 145.955 310.338 145.963 311.07 145.951 311.803 145.943 312.519 145.906 313.207 145.87 313.886 145.825 314.562 145.764 315.209 145.683 315.86 145.609 316.483 145.52 317.089 145.422 320.402 144.828 323.071 143.798 325.049 142.382 327.023 140.978 328.317 139.212 328.879 137.149 329.456 135.102 329.322 132.762 328.451 130.206 327.584 127.683 325.985 124.94 323.637 122.051 320.752 118.518 316.999 115.092 312.661 111.893 308.356 108.723 303.476 105.772 298.308 103.196 293.148 100.624 287.682 98.4064 282.201 96.6971 276.723 94.9716 271.192 93.763 265.914 93.2055" fill="#CC2525" transform="matrix(1 0 0 1.04943 229.574 184.278)"></path><path d="M5.8634 146.585 5.8634 43.9755 21.9877 43.9755 21.9877 131.926 48.5196 131.926 48.5196 146.585 5.8634 146.585ZM70.3607 67.5756 70.3607 122.985C70.3607 130.314 73.5856 133.099 78.7161 133.099 83.8465 133.099 87.0714 130.314 87.0714 122.985L87.0714 67.5756C87.0714 60.2464 83.8465 57.4613 78.7161 57.4613 73.5856 57.4613 70.3607 60.2464 70.3607 67.5756ZM54.2364 121.959 54.2364 68.6017C54.2364 52.1842 62.8849 42.8028 78.7161 42.8028 94.5472 42.8028 103.196 52.1842 103.196 68.6017L103.196 121.959C103.196 138.376 94.5472 147.758 78.7161 147.758 62.8849 147.758 54.2364 138.376 54.2364 121.959ZM137.79 104.075 137.79 89.4168 160.364 89.4168 160.364 121.959C160.364 138.376 152.155 147.758 136.324 147.758 120.493 147.758 112.284 138.376 112.284 121.959L112.284 68.6017C112.284 52.1842 120.493 42.8028 136.324 42.8028 152.155 42.8028 160.364 52.1842 160.364 68.6017L160.364 78.5695 145.119 78.5695 145.119 67.5756C145.119 60.2464 141.894 57.4613 136.764 57.4613 131.633 57.4613 128.408 60.2464 128.408 67.5756L128.408 122.985C128.408 130.314 131.633 132.952 136.764 132.952 141.894 132.952 145.119 130.314 145.119 122.985L145.119 104.075 137.79 104.075ZM170.771 146.585 170.771 43.9755 186.896 43.9755 186.896 146.585 170.771 146.585ZM230.138 108.326 245.383 108.326 245.383 121.959C245.383 138.376 237.174 147.758 221.343 147.758 205.512 147.758 197.303 138.376 197.303 121.959L197.303 68.6017C197.303 52.1842 205.512 42.8028 221.343 42.8028 237.174 42.8028 245.383 52.1842 245.383 68.6017L245.383 78.5695 230.138 78.5695 230.138 67.5756C230.138 60.2464 226.913 57.4613 221.783 57.4613 216.652 57.4613 213.428 60.2464 213.428 67.5756L213.428 122.985C213.428 130.314 216.652 132.952 221.783 132.952 226.913 132.952 230.138 130.314 230.138 122.985L230.138 108.326ZM277.925 146.585 277.925 43.9755 303.431 43.9755C319.555 43.9755 327.471 52.9171 327.471 69.3346L327.471 121.226C327.471 137.643 319.555 146.585 303.431 146.585L277.925 146.585ZM303.138 58.6339 294.049 58.6339 294.049 131.926 303.138 131.926C308.268 131.926 311.346 129.288 311.346 121.959L311.346 68.6017C311.346 61.2725 308.268 58.6339 303.138 58.6339ZM373.352 43.9755 389.769 146.585 373.498 146.585 370.713 127.969 350.924 127.969 348.139 146.585 333.334 146.585 349.752 43.9755 373.352 43.9755ZM360.599 62.152 352.976 114.043 368.514 114.043 360.892 62.152 360.599 62.152ZM386.984 58.6339 386.984 43.9755 436.823 43.9755 436.823 58.6339 419.966 58.6339 419.966 146.585 403.841 146.585 403.841 58.6339 386.984 58.6339ZM474.055 43.9755 490.473 146.585 474.202 146.585 471.417 127.969 451.628 127.969 448.843 146.585 434.038 146.585 450.455 43.9755 474.055 43.9755ZM461.303 62.152 453.68 114.043 469.218 114.043 461.596 62.152 461.303 62.152ZM518.617 68.6017C518.617 52.1842 526.679 42.8028 542.364 42.8028 558.049 42.8028 566.111 52.1842 566.111 68.6017L566.111 71.8266 550.866 71.8266 550.866 67.5756C550.866 60.2464 547.934 57.4613 542.804 57.4613 537.673 57.4613 534.742 60.2464 534.742 67.5756 534.742 75.0515 537.966 80.6217 548.521 89.8565 562.006 101.73 566.257 110.232 566.257 121.959 566.257 138.376 558.049 147.758 542.217 147.758 526.386 147.758 518.177 138.376 518.177 121.959L518.177 115.655 533.422 115.655 533.422 122.985C533.422 130.314 536.647 132.952 541.778 132.952 546.908 132.952 550.133 130.314 550.133 122.985 550.133 115.509 546.908 109.939 536.354 100.704 522.868 88.8304 518.617 80.3285 518.617 68.6017ZM590.297 67.5756 590.297 122.985C590.297 130.314 593.522 133.099 598.653 133.099 603.783 133.099 607.008 130.314 607.008 122.985L607.008 67.5756C607.008 60.2464 603.783 57.4613 598.653 57.4613 593.522 57.4613 590.297 60.2464 590.297 67.5756ZM574.173 121.959 574.173 68.6017C574.173 52.1842 582.821 42.8028 598.653 42.8028 614.484 42.8028 623.132 52.1842 623.132 68.6017L623.132 121.959C623.132 138.376 614.484 147.758 598.653 147.758 582.821 147.758 574.173 138.376 574.173 121.959ZM633.54 146.585 633.54 43.9755 649.664 43.9755 649.664 131.926 676.196 131.926 676.196 146.585 633.54 146.585ZM682.499 43.9755 698.623 43.9755 698.623 123.131C698.623 130.461 701.848 133.099 706.979 133.099 712.109 133.099 715.334 130.461 715.334 123.131L715.334 43.9755 730.579 43.9755 730.579 122.105C730.579 138.523 722.37 147.904 706.539 147.904 690.708 147.904 682.499 138.523 682.499 122.105L682.499 43.9755ZM736.882 58.6339 736.882 43.9755 786.721 43.9755 786.721 58.6339 769.864 58.6339 769.864 146.585 753.739 146.585 753.739 58.6339 736.882 58.6339ZM793.757 146.585 793.757 43.9755 809.881 43.9755 809.881 146.585 793.757 146.585ZM836.413 67.5756 836.413 122.985C836.413 130.314 839.638 133.099 844.769 133.099 849.899 133.099 853.124 130.314 853.124 122.985L853.124 67.5756C853.124 60.2464 849.899 57.4613 844.769 57.4613 839.638 57.4613 836.413 60.2464 836.413 67.5756ZM820.289 121.959 820.289 68.6017C820.289 52.1842 828.937 42.8028 844.769 42.8028 860.6 42.8028 869.248 52.1842 869.248 68.6017L869.248 121.959C869.248 138.376 860.6 147.758 844.769 147.758 828.937 147.758 820.289 138.376 820.289 121.959ZM914.103 146.585 894.314 72.2663 894.021 72.2663 894.021 146.585 879.509 146.585 879.509 43.9755 899.738 43.9755 916.009 105.395 916.302 105.395 916.302 43.9755 930.667 43.9755 930.667 146.585 914.103 146.585ZM940.195 68.6017C940.195 52.1842 948.258 42.8028 963.942 42.8028 979.627 42.8028 987.689 52.1842 987.689 68.6017L987.689 71.8266 972.444 71.8266 972.444 67.5756C972.444 60.2464 969.512 57.4613 964.382 57.4613 959.251 57.4613 956.32 60.2464 956.32 67.5756 956.32 75.0515 959.545 80.6217 970.099 89.8565 983.584 101.73 987.835 110.232 987.835 121.959 987.835 138.376 979.627 147.758 963.796 147.758 947.964 147.758 939.756 138.376 939.756 121.959L939.756 115.655 955 115.655 955 122.985C955 130.314 958.225 132.952 963.356 132.952 968.486 132.952 971.711 130.314 971.711 122.985 971.711 115.509 968.486 109.939 957.932 100.704 944.446 88.8304 940.195 80.3285 940.195 68.6017Z" transform="matrix(1 0 0 1.04943 -64.8338 543.912)"></path></g></svg>